<svg id="a03e5267-f1f6-4982-846a-a1fab3243dfd" data-name="Layer 1" xmlns="http://www.w3.org/2000/svg" xmlns:xlink="http://www.w3.org/1999/xlink" viewBox="0 0 500 674.99"><defs><clipPath id="fc2941d7-a3c0-44d9-a2d2-bb94c5fd5cb5" transform="translate(0 0)"><path d="M243.09,336.3,306.81,320s8.16-5.59,19.45,5.59S336.47,339,336.47,339s-6.41,1.12-10.21,0-28.4,9.38-61.93.5Z" fill="none"/></clipPath><clipPath id="ff55ad62-ff5e-48e1-b333-0c980a50b6bc" transform="translate(0 0)"><path d="M426.68,318.61s-11.27,3.92-11.27,6.6c0,2.34,1.22,4.68,7.91,3.83,1-.13,2.11-.33,3.36-.6,9.67-2.15,15.44,4.78,38.05.78s18.32-19.64,18.32-19.64a33,33,0,0,0-28.6-3.69A129.17,129.17,0,0,0,426.68,318.61Z" fill="none"/></clipPath><clipPath id="a6a7a45b-de21-4e5e-b74f-a21ec4090e0e" transform="translate(0 0)"><path d="M24.94,269.1S16.09,111.74,74.12,71.42,138,12.41,209.83,1.59,367.19,38,389.81,54.7,473.4,154,490.12,258.28c0,0,4.92,26.55-4.92,54.09,0,0,15.74,70.81,14.76,110.15S482.25,513,482.25,513s-2,23.61-12.78,36.39-17.7,48.19-17.7,48.19,3.93,40.32-28.52,52.13-53.11,25.57-89.5,21.63S61.33,592.66,71.17,448.09c0,0-41.88,2.88-42.86-21.71,0,0-4.58-7-9.43-11.05S.29,400.78.56,378.42s0-32.6,0-32.6-2.7-19.94,3.77-26.94l4-12.67s1.89-24,10.78-30.18l6.2-2.69Z" fill="none"/></clipPath></defs><path d="M24.94,269.1S16.09,111.74,74.12,71.42,138,12.41,209.83,1.59,367.19,38,389.81,54.7,473.4,154,490.12,258.28c0,0,4.92,26.55-4.92,54.09,0,0,15.74,70.81,14.76,110.15S482.25,513,482.25,513s-2,23.61-12.78,36.39-17.7,48.19-17.7,48.19,3.93,40.32-28.52,52.13-53.11,25.57-89.5,21.63S61.33,592.66,71.17,448.09c0,0-41.88,2.88-42.86-21.71,0,0-4.58-7-9.43-11.05S.29,400.78.56,378.42s0-32.6,0-32.6-2.7-19.94,3.77-26.94l4-12.67s1.89-24,10.78-30.18l6.2-2.69Z" transform="translate(0 0)" fill="#7f4b3c"/><path d="M349.54,407.33c-11.73,8.32-23.7,22.89-22,38.1.74,6.76,4.19,12.64,8.71,17.59.72.79,1.88-.38,1.17-1.17-5.13-5.62-8.68-12.51-8.36-20.27.25-6.07,2.73-11.81,6-16.83a61,61,0,0,1,15.32-16c.86-.61,0-2-.83-1.42Z" transform="translate(0 0)" fill="#3f1b0d"/><path d="M395.48,457.85c3.3,3.9,8.6,6.5,13.53,7.45a28.32,28.32,0,0,0,15.5-1.62c2.32-.9,5.41-2,7.23-3.69a25.81,25.81,0,0,0,2.29-2.92l6.53-8.29c.65-.82-.51-2-1.17-1.17l-5,6.32-3,3.84a10.47,10.47,0,0,1-3.85,2.75c-8.54,4.37-18.53,5.05-26.76-.34a19.23,19.23,0,0,1-4.15-3.49c-.68-.82-1.85.36-1.16,1.16Z" transform="translate(0 0)" fill="#3f1b0d"/><path d="M437.71,449.89s3.71-8.82,10.8-10.48,4.05,6,4.05,6Z" transform="translate(0 0)" fill="#210e07"/><path d="M440.52,392.3c2,.71,4.67,4.1,6.23,5.71a86.28,86.28,0,0,1,10.39,12.88c3.23,5,6.13,10.63,6.68,16.62a28,28,0,0,1-5.13,17.84c-1.28,1.71-3.56,4-5.95,3.71-1.06-.12-1.05,1.54,0,1.65,1.91.22,3.94-1,5.29-2.21,4.48-3.92,6.64-11,7.37-16.69,1.6-12.46-8-24.75-15.93-33.32-1.8-1.95-3.68-3.85-5.67-5.62A10,10,0,0,0,441,390.7c-1-.36-1.43,1.23-.44,1.6Z" transform="translate(0 0)" fill="#3f1b0d"/><path d="M346.64,356.28c-5.31,8.85-13.95,16.31-22.53,21.78-22.25,14.17-49,15.12-73.92,8.41a.83.83,0,0,0-.44,1.6c20.67,5.55,42.71,6.22,62.74-2.11a81.34,81.34,0,0,0,31-22.63,49.37,49.37,0,0,0,4.62-6.22.83.83,0,0,0-1.43-.83Z" transform="translate(0 0)" fill="#3f1b0d"/><path d="M422.61,337a82.26,82.26,0,0,0,12.5,17.36c7.16,7.65,17.47,15,28.47,11.69,8.07-2.4,13.86-9.34,18.27-16.14.58-.89-.85-1.72-1.42-.83-4,6.22-9.28,12.66-16.55,15.15a19.83,19.83,0,0,1-15.27-1.38c-8.83-4.35-15.6-12.61-20.93-20.67-1.29-1.95-2.55-3.95-3.64-6-.5-.94-1.93-.11-1.43.83Z" transform="translate(0 0)" fill="#3f1b0d"/><path d="M466.73,514.37c-31.3-6.72-34.5-7.76-40.86.09s-10.9,6.23-21.35.78-86.17,18.21-86.17,18.21,32,4.38,45,.75S404.71,536,404.71,536A71.33,71.33,0,0,0,425,531.06s3.06-8.54,20.5-11.26S466.73,514.37,466.73,514.37Z" transform="translate(0 0)" fill="#703a37"/><path d="M459.89,517s-2.11,7.86-21.6,24-75,12-77.7,7.49-42.24-15-42.24-15,24.74,5.63,57.6-1.16c0,0,7.9-1.82,32.39,3.18,0,0,9.08.18,21.08-10.77C429.42,524.7,431.05,522.15,459.89,517Z" transform="translate(0 0)" fill="#94625a"/><path d="M363.82,550.61s18.83,9.38,19,9.39h-.2s-2.47,7,2.94,6.6c0,0,2.22,3.37,7.7,3.52,0,0,2.26,4.09,10.89,3.66s17.07-9.09,17.07-9.09,8.36-2.67,9.25-6.68,6-11.54,6-14.83-10.79,7.92-33.35,9c-27.26,1.35-38.41-1.36-38.41-1.36" transform="translate(0 0)" fill="#210e07"/><path d="M332.79,673.21s-63.52-18.1-57.42-94c0,0,11.11,21.61,21.65,21.61s14.44,25.41,14.44,25.41,11.26,5,19.1,0c0,0,3.92-8.7,9.58-6.87s6.75,9.4,12,8.48,7.06-6.88,11.7-.46,9.21-1.15,9.21-1.15,7.63-12.37,13.07-6.64,3,11.92,7.19,9.17,1.53-9.17,4.14-9.63,10-4.13,12.64,3.9c0,0,3.26-8.25,6.09-6.65s6.1-.69,7.85,5.27c0,0,5-2.06,5.88-6s1.52-9.17,3.48-8,3.71-.92,5,5.73-1.84-.69-1.84-.69a17.24,17.24,0,0,0,9.9-8.94l5.88-10.08s3.49,9.63,1.53,14.67-4.79,7.1-4.79,7.1,1.3,6.19.43,8.94-5.66,5.5-5.66,5.5,2,6.88-1.74,7.57-1.35-.46-1.35-.46,2.22,3.9-1.27,3.9c0,0-2.61,6.64-6.53,8a8.28,8.28,0,0,1-7-.69s3.26,4.81-2,6.19l-5.45-1.15s4.57,5-4.36,5.73l-3.92-2.29s4.58,6.88-7.19,6c0,0-.65,1.83-7,4.35s-7.58-3-7.58-3,.4,5-4.61,5.5-5-3.21-5-3.21,0,3-4.14,4.35-7.85-3.21-7.85-3.21a13.49,13.49,0,0,1-5.44,3.9l-3.27,1.15S355.06,677.6,332.79,673.21Z" transform="translate(0 0)" fill="#210e07"/><path d="M243.09,336.3,306.81,320s8.16-5.59,19.45,5.59S336.47,339,336.47,339s-6.41,1.12-10.21,0-28.4,9.38-61.93.5Z" transform="translate(0 0)" fill="#c68477"/><path d="M243.31,329.23l30.5-8.89,22-6.43c3.81-1.11,7.73-2.66,11.64-3.4,7.95-1.49,18.75,2.91,24.71,8.68.77.74,1.93-.42,1.17-1.16a33.55,33.55,0,0,0-24.76-9.26c-2.72.17-5.36,1.26-8,2l-44.5,13-13.28,3.87a.83.83,0,0,0,.44,1.59Z" transform="translate(0 0)" fill="#3f1b0d"/><path d="M426.68,318.61s-11.27,3.92-11.27,6.6c0,2.34,1.22,4.68,7.91,3.83,1-.13,2.11-.33,3.36-.6,9.67-2.15,15.44,4.78,38.05.78s18.32-19.64,18.32-19.64a33,33,0,0,0-28.6-3.69A129.17,129.17,0,0,0,426.68,318.61Z" transform="translate(0 0)" fill="#c68477"/><path d="M421.84,314a59.26,59.26,0,0,1,17.67-13.05,48.63,48.63,0,0,1,45.81.83c.93.51,1.76-.92.83-1.42-14.45-7.81-30.67-8.56-45.63-1.72a60.92,60.92,0,0,0-19.85,14.19c-.7.79.46,2,1.17,1.17Z" transform="translate(0 0)" fill="#3f1b0d"/><path d="M291.38,257.13s20.5-6.21,50.52,8.4L350,272l3.59,22.63s-22.42-19-59.46-15.91-80,25.51-80,25.51-12.89-2.6-12.89-13.33S243.09,261.33,291.38,257.13Z" transform="translate(0 0)" fill="#210e07"/><path d="M486.76,240.29s-66.52-3.11-82.62,28l4.29,22.55s20.4-30.56,56.3-30.56c9.07,0,19.93-.58,24.22,4C489,264.29,497.82,265,486.76,240.29Z" transform="translate(0 0)" fill="#210e07"/><path d="M317,508.88v14.3a.83.83,0,0,0,1.65,0v-14.3a.83.83,0,0,0-1.65,0Z" transform="translate(0 0)" fill="#38180b"/><path d="M323.48,507.47l1.84,12.39.26,1.76c.16,1,1.75.6,1.6-.44l-1.85-12.39-.26-1.76c-.16-1-1.75-.61-1.59.44Z" transform="translate(0 0)" fill="#38180b"/><path d="M329.32,505.87l1.84,12.39.26,1.76c.16,1.05,1.75.61,1.6-.43l-1.85-12.4-.26-1.76c-.16-1-1.75-.6-1.59.44Z" transform="translate(0 0)" fill="#38180b"/><path d="M334.46,504.32l3.07,12.17.43,1.71a.83.83,0,0,0,1.59-.44l-3.06-12.17-.43-1.71a.83.83,0,0,0-1.6.44Z" transform="translate(0 0)" fill="#38180b"/><path d="M341.1,501.36l4.78,11.58.68,1.65a.87.87,0,0,0,1,.58.84.84,0,0,0,.57-1l-4.77-11.57-.68-1.65a.86.86,0,0,0-1-.58.83.83,0,0,0-.58,1Z" transform="translate(0 0)" fill="#38180b"/><path d="M349.16,497.71l4.78,11.57.68,1.66a.84.84,0,0,0,1,.57.83.83,0,0,0,.58-1l-4.78-11.58-.68-1.65a.86.86,0,0,0-1-.58.84.84,0,0,0-.58,1Z" transform="translate(0 0)" fill="#38180b"/><path d="M310.27,510.86l-1.17,12.45-.17,1.79c-.1,1.06,1.56,1,1.65,0l1.18-12.45.16-1.79c.1-1.06-1.55-1.06-1.65,0Z" transform="translate(0 0)" fill="#38180b"/><path d="M356.64,495.07l5.26,11.38.74,1.61c.44,1,1.87.12,1.43-.84l-5.26-11.38-.75-1.6c-.44-1-1.86-.13-1.42.83Z" transform="translate(0 0)" fill="#38180b"/><path d="M395.7,485l2.76,12.21.39,1.74c.24,1,1.83.6,1.59-.44l-2.76-12.21-.39-1.74c-.23-1-1.83-.6-1.59.44Z" transform="translate(0 0)" fill="#38180b"/><path d="M387.25,487.65l4.61,11.61.66,1.68c.39,1,2,.55,1.59-.44l-4.61-11.62-.66-1.67c-.39-1-2-.55-1.59.44Z" transform="translate(0 0)" fill="#38180b"/><path d="M381.39,489.2,386,500.82l.66,1.68c.39,1,2,.55,1.59-.44l-4.61-11.62-.66-1.68c-.39-1-2-.55-1.6.44Z" transform="translate(0 0)" fill="#38180b"/><path d="M376.16,490.44l3.44,12,.5,1.74a.83.83,0,0,0,1.6-.44l-3.44-12-.5-1.75a.83.83,0,0,0-1.6.44Z" transform="translate(0 0)" fill="#38180b"/><path d="M367.83,491.09l1.81,12.4.25,1.76c.16,1.05,1.75.6,1.6-.44l-1.81-12.39-.26-1.77c-.15-1-1.74-.6-1.59.44Z" transform="translate(0 0)" fill="#38180b"/><path d="M404,486.36l5.34,11.34.76,1.6c.45,1,1.87.13,1.42-.83l-5.34-11.34-.76-1.6c-.45-1-1.87-.13-1.42.83Z" transform="translate(0 0)" fill="#38180b"/><path d="M413.09,486.4l5.47,11.25.79,1.61c.46,1,1.89.12,1.42-.83l-5.47-11.25-.79-1.61c-.46-1-1.89-.12-1.42.83Z" transform="translate(0 0)" fill="#38180b"/><path d="M420.44,484.57l6.64,10.62.95,1.51c.56.9,2,.07,1.42-.83l-6.64-10.62-.95-1.51c-.56-.9-2-.07-1.42.83Z" transform="translate(0 0)" fill="#38180b"/><path d="M442.82,486.4,448,497.82l.74,1.63c.43,1,1.86.13,1.42-.84L445,487.2l-.73-1.63c-.44-1-1.86-.13-1.43.83Z" transform="translate(0 0)" fill="#38180b"/><path d="M432.06,486.08l4.61,11.62.66,1.68c.39,1,2,.55,1.6-.44l-4.61-11.62-.67-1.68c-.39-1-2-.55-1.59.44Z" transform="translate(0 0)" fill="#38180b"/><path d="M450.68,486.46,456,497.79l.75,1.61c.46,1,1.88.12,1.43-.84l-5.34-11.34-.76-1.6c-.45-1-1.88-.12-1.43.84Z" transform="translate(0 0)" fill="#38180b"/><path d="M459.76,488.64l5.47,11.25.79,1.61c.46,1,1.89.12,1.42-.83L462,489.42l-.79-1.62c-.46-.95-1.89-.12-1.42.84Z" transform="translate(0 0)" fill="#38180b"/><path d="M469.27,498.52l4.24,11.77.61,1.69c.36,1,2,.56,1.59-.44l-4.24-11.76-.61-1.7c-.36-1-2-.56-1.59.44Z" transform="translate(0 0)" fill="#38180b"/><path d="M301.16,512.5l-1.72,12.41-.25,1.76c-.14,1,1.45,1.49,1.59.44l1.72-12.41.25-1.76c.14-1-1.45-1.49-1.59-.44Z" transform="translate(0 0)" fill="#38180b"/><path d="M294.59,518.74l-3.5,12-.51,1.75a.83.83,0,0,0,1.59.44l3.5-12,.51-1.74a.83.83,0,0,0-1.59-.44Z" transform="translate(0 0)" fill="#38180b"/><path d="M287.39,527.64l-3.5,12-.5,1.74a.83.83,0,0,0,1.59.44l3.49-12,.51-1.75a.83.83,0,0,0-1.59-.44Z" transform="translate(0 0)" fill="#38180b"/><path d="M278.79,537.48l-3.27,12.08-.47,1.73a.83.83,0,0,0,1.6.44l3.26-12.08.47-1.73a.83.83,0,0,0-1.59-.44Z" transform="translate(0 0)" fill="#38180b"/><path d="M280.65,548.1l-3.26,12.09-.47,1.72a.83.83,0,0,0,1.59.44l3.27-12.08.47-1.73a.83.83,0,0,0-1.6-.44Z" transform="translate(0 0)" fill="#38180b"/><path d="M272.45,557.94l-.32,12.5-.05,1.8a.83.83,0,0,0,1.65,0l.33-12.5,0-1.8a.83.83,0,0,0-1.65,0Z" transform="translate(0 0)" fill="#38180b"/><path d="M275.21,572l-.32,12.5-.05,1.8a.83.83,0,0,0,1.65,0l.32-12.5.05-1.8a.83.83,0,0,0-1.65,0Z" transform="translate(0 0)" fill="#38180b"/><path d="M476.13,505.25,480.38,517l.61,1.7c.36,1,1.95.56,1.59-.44l-4.24-11.76-.62-1.7c-.35-1-2-.56-1.59.44Z" transform="translate(0 0)" fill="#38180b"/><g clip-path="url(#fc2941d7-a3c0-44d9-a2d2-bb94c5fd5cb5)"><path d="M283.1,319.87a20.33,20.33,0,0,0-1.22,27.44,17.48,17.48,0,0,0,25.78,1.05,20.32,20.32,0,0,0,1.22-27.44A17.48,17.48,0,0,0,283.1,319.87Z" transform="translate(0 0)" fill="#52240f"/><path d="M288,320.3a12.14,12.14,0,0,0-.72,16.39,10.44,10.44,0,0,0,15.4.63,12.13,12.13,0,0,0,.72-16.39A10.44,10.44,0,0,0,288,320.3Z" transform="translate(0 0)" fill="#38180b"/><path d="M294.9,322a3.17,3.17,0,0,0-.19,4.3,2.73,2.73,0,0,0,4,.16,3.18,3.18,0,0,0,.19-4.3A2.73,2.73,0,0,0,294.9,322Z" transform="translate(0 0)" fill="#fff2ee"/></g><g clip-path="url(#ff55ad62-ff5e-48e1-b333-0c980a50b6bc)"><path d="M445.22,304.77A20.3,20.3,0,0,0,444,332.2a17.47,17.47,0,0,0,25.78,1.05A20.32,20.32,0,0,0,471,305.82,17.47,17.47,0,0,0,445.22,304.77Z" transform="translate(0 0)" fill="#52240f"/><path d="M450.16,305.2a12.14,12.14,0,0,0-.73,16.39,10.44,10.44,0,0,0,15.4.62,12.12,12.12,0,0,0,.73-16.38A10.44,10.44,0,0,0,450.16,305.2Z" transform="translate(0 0)" fill="#38180b"/><path d="M446.21,311a2.21,2.21,0,0,0-.13,3,1.9,1.9,0,0,0,2.78.11,2.19,2.19,0,0,0,.13-3A1.89,1.89,0,0,0,446.21,311Z" transform="translate(0 0)" fill="#fff2ee"/></g><path d="M243.53,337.9l36.8-9.42,21.77-5.56c2.91-.75,6.47-2.41,9.43-2.63,7.85-.61,14.12,6.66,18.79,12a26.66,26.66,0,0,1,4.19,5.67c.3.62.21,1,.37.63-.77,2,2.42,2.84,3.18.88.47-1.2-.49-2.81-1-3.79-2.88-5.11-7.81-10-12.31-13.65-4-3.19-8.91-5.57-14.12-4.93a16.28,16.28,0,0,0-3.9,1.11c-1.09.42,0,.09-.74.33-14.92,4.79-30.65,7.84-45.83,11.73l-17.46,4.46c-2.06.53-1.19,3.71.87,3.19Z" transform="translate(0 0)" fill="#210e07"/><path d="M483.88,308.16c-4-3-9.35-4.62-14.25-5.29-10.35-1.41-20.19,2.64-29.47,6.79-3.61,1.62-7.16,3.38-10.61,5.33-.92.51-1.86,1-2.74,1.6-.29.18-1.33.77-.68.47-3.39,1.59-11.64,3.19-12.31,7.72-.31,2.07,2.87,3,3.18.87.28-1.85,4.94-3.37,6.43-4s2.85-1,4.17-1.65c4.48-2.28,8.71-5,13.31-7.06,12.79-5.84,28.67-11.23,41.3-1.92,1.72,1.26,3.37-1.6,1.67-2.85Z" transform="translate(0 0)" fill="#210e07"/><path d="M341.68,304.79c8.24,2.12,15.67,8.85,17.93,17.08a29.94,29.94,0,0,1-.05,14.48c-.24,1,1.36,1.48,1.59.44,1.75-7.84,1.28-16.23-3.55-22.92a29.18,29.18,0,0,0-12.24-9.5,23.18,23.18,0,0,0-3.24-1.17.83.83,0,0,0-.44,1.59Z" transform="translate(0 0)" fill="#3f1b0d"/><path d="M410.22,297.83A25,25,0,0,0,406,307c-2.39,8.74-1.46,18,1,26.62a.83.83,0,0,0,1.59-.44c-2.35-8.33-3.28-17.28-1-25.74a28.84,28.84,0,0,1,2.53-6.39c.3-.55.63-1.09,1-1.61.13-.2.39-.54.3-.43.67-.82-.49-2-1.17-1.17Z" transform="translate(0 0)" fill="#3f1b0d"/><g clip-path="url(#a6a7a45b-de21-4e5e-b74f-a21ec4090e0e)"><path d="M58.53,319.87c-6.38-10-32.91-46.49-41.27-20.61-3.45,10.69-2.61,22.25-2.41,33.29.09,4.95.16,11.58-2,16.19-1.66,3.6-4.06,6.66-5.11,10.58-4.48,16.69,8.74,32,20.37,42,.8.69,2-.48,1.16-1.17-10.88-9.4-23.47-23.38-20.25-39.09.82-4,2.93-7.28,4.85-10.81,1.67-3,1.85-6.52,2.14-9.93.8-9.25-.2-18.49.55-27.76.45-5.57,1.07-12.11,4-17,3.48-5.79,9.14-4.11,13.92-.8,9.24,6.42,16.56,16.55,22.57,25.94.57.89,2,.07,1.43-.83Z" transform="translate(0 0)" fill="#3f1b0d"/><path d="M75.56,336.16A172.08,172.08,0,0,0,63.85,354.5c-1.87,3.44-4,7.28-4.6,11.22s2.65,7.36,4.92,10.3,8.25,8.52,7,12.79a29,29,0,0,0-.89,7c-.13,2.52-.05,6-1.73,8.11-2.75,3.43-8.51-1.37-10.76-3.14-9.51-7.5-17.7-18.37-20.92-30.22a.83.83,0,0,0-1.6.44c2.73,10,9.09,19.64,16.54,26.74,3.56,3.39,15.44,14.72,19,5.33,1.06-2.8,1-6,1.19-8.94a16.61,16.61,0,0,1,.41-4c.39-1.29.86-2.15.55-3.56-1.18-5.26-6.34-9.8-9.36-14-1.21-1.69-2.88-3.69-2.81-5.88a17.22,17.22,0,0,1,1.8-5.92c3.67-8.42,9-16.31,14.4-23.74.62-.86-.81-1.69-1.43-.83Z" transform="translate(0 0)" fill="#3f1b0d"/><path d="M62.05,333c-3.25,5-8.5,10.65-14.65,11.6-5.59.86-12.3-.91-17.28,2.48-3.18,2.18-4,6-4.07,9.64a.83.83,0,0,0,1.65,0c0-3.45.85-7.05,4.16-8.75,2.6-1.34,5.74-1.36,8.59-1.41s6.09.12,9-.72c3.57-1,6.65-3.48,9.23-6.09a38.59,38.59,0,0,0,4.83-5.91c.58-.9-.85-1.73-1.43-.84Z" transform="translate(0 0)" fill="#3f1b0d"/><path d="M84,398.25a128.25,128.25,0,0,1-1.57,15q-1.2,7.92-3,15.71c-1.13,4.83-2,10.37-4.62,14.67-7.24,11.74-24.53,4.94-34,.26a84.8,84.8,0,0,1-9.65-5.46c-.89-.6-1.71.83-.83,1.42,8.15,5.46,17.92,10.19,27.69,11.54,5.71.79,12,.09,16.17-4.26,2.65-2.74,3.84-6.24,4.84-9.83q2.53-9.18,4.2-18.57a144.25,144.25,0,0,0,2.46-20.51c0-1.06-1.62-1.06-1.65,0Z" transform="translate(0 0)" fill="#3f1b0d"/><path d="M14,280.42a15.08,15.08,0,0,1,8.24-6c10.09-3.19,20.81,3.1,28.56,9,10,7.55,18.45,17.09,26.26,26.82.67.83,1.83-.35,1.17-1.17-7.56-9.41-15.7-18.56-25.24-26-5.31-4.16-11.18-7.94-17.7-9.88-6.78-2-14.3-1.51-19.82,3.24a13.62,13.62,0,0,0-2.89,3.26.82.82,0,0,0,1.42.83Z" transform="translate(0 0)" fill="#3f1b0d"/></g><path d="M363.38,446.13s10.93-1.58,15.82,0,16.1,4.72,17.83,11c0,0-.29,7.6-9.78,2.09,0,0-17.83-8.4-18.41-5.9C368.84,453.34,356.47,453.21,363.38,446.13Z" transform="translate(0 0)" fill="#210e07"/><path d="M219.13,210.17c36.47,1.07,72.83.94,109.26-1,17.75-1,35.9-3.12,53.61-1.84,9.74.7,20.17-1.94,29.82-3.24,11.77-1.57,23.57-3.42,34.87-7.15,1-.34.58-1.93-.44-1.6-11.86,3.93-24.26,5.77-36.6,7.39-10.36,1.35-20.66,3.43-31.09,2.56-17.26-1.43-35.77,1.44-53,2.38-35.46,1.92-70.89,1.91-106.39.87a.83.83,0,0,0,0,1.65Z" transform="translate(0 0)" fill="#3f1b0d"/><path d="M445.24,168.87C430.39,175,414,180,397.9,181c-22.7,1.42-45-2.25-67.71.82-20.84,2.82-41.66,6.65-62.67,7.91-8.45.51-16.61.92-25,2.35-9.8,1.68-25.43,6.4-33.41-1.87-.74-.76-1.91.41-1.17,1.17,5.51,5.7,13.75,5.3,21.08,4.49,10.58-1.17,20.87-3.88,31.54-4.25,20.63-.71,41.06-4.09,61.48-7,12.6-1.79,25-3.21,37.73-2.92s25.45,1.76,38.11,1c16.27-1,32.75-6,47.77-12.22,1-.4.55-2-.43-1.59Z" transform="translate(0 0)" fill="#3f1b0d"/><path d="M428.52,145.06a164.54,164.54,0,0,1-45,10.8c-15.29,1.36-30.62,2.23-45.94,3-11,.57-22-1.61-33.11-1.28-6.95.2-13.44,1.94-20.29,2.67-7.66.82-15.41,1-23.11,1.12-9.77.14-19.56.05-29.33-.38-5.44-.24-12.53.27-17.66-1.86-1-.41-1.41,1.19-.44,1.59,3.78,1.57,8.73,1.39,12.72,1.64,8.39.52,16.81.69,25.22.71,14.31,0,28.4-.34,42.47-2.89,13.65-2.47,27.05.65,40.64.47,14.52-.19,29.17-1.58,43.63-2.74A177,177,0,0,0,429,146.65c1-.38.56-2-.44-1.59Z" transform="translate(0 0)" fill="#3f1b0d"/><path d="M324.91,345.55a76.08,76.08,0,0,1-11.28,5.9c-7.3,3.14-15.6,5.65-23.61,4.45-1-.16-1.49,1.43-.44,1.59,8.14,1.22,16.41-1.07,23.87-4.19A76.32,76.32,0,0,0,325.74,347c.89-.58.06-2-.83-1.42Z" transform="translate(0 0)" fill="#3f1b0d"/><path d="M483,328.1a37.52,37.52,0,0,1-8.13,4,57.76,57.76,0,0,1-22.09,3.63.83.83,0,0,0,0,1.65,59.07,59.07,0,0,0,22.53-3.69,38.76,38.76,0,0,0,8.52-4.19c.87-.6,0-2-.83-1.42Z" transform="translate(0 0)" fill="#3f1b0d"/><path d="M302.4,538.32c4.65-6.6,16.17-2.41,22.7-1.68a152.36,152.36,0,0,0,28.57.4c7.79-.6,15.39-3.24,23.16-3.32s15.66,1.32,23.32,2.93a25.8,25.8,0,0,0,9.36.67c10.19-1.45,16.57-10,26-13.37a69.44,69.44,0,0,1,12.57-3c2.3-.36,5.6-.19,7.77-1.22,4-1.91,6.22-3,11.35-3.79,2.09-.3,1.2-3.48-.88-3.18-3.18.45-6.65.66-9.59,2.07-1,.49-1.37,1.43-2.44,1.89-2.54,1.06-6.14.86-8.83,1.33a63,63,0,0,0-12.88,3.47c-9.7,3.93-16.86,13.89-28.21,12.62-4.35-.49-8.66-1.85-13-2.5-18-2.71-34.79,2.81-52.81,2.49-9.34-.17-19-3.2-28.24-2.57-3.94.27-8.37,1.71-10.75,5.08-1.22,1.74,1.64,3.39,2.86,1.66Z" transform="translate(0 0)" fill="#3f1b0d"/><path d="M247.52,351.22s-74.4,115.42-2.13,113.62S247.52,351.22,247.52,351.22Z" transform="translate(0 0)" fill="#b2eae8"/><path d="M265.69,413.18s12.83,14.68,2.69,32.25-16.66-3.39-15.59-6.26,4.84-10.4,4.3-15.78S254.62,405.87,265.69,413.18Z" transform="translate(0 0)" fill="#d7ffff"/></svg>