<svg id="a986c165-2823-4ffb-9b1e-2d5e1a263107" data-name="Layer 1" xmlns="http://www.w3.org/2000/svg" xmlns:xlink="http://www.w3.org/1999/xlink" viewBox="0 0 500 531.15"><defs><clipPath id="f8516f6f-6af1-4204-b25d-e7aac2c254a5" transform="translate(0)"><path d="M157,88.47s1.22,3.81-5.63,15.22c0,0,2.6,14.16,5.72,19.65S169.93,144,169.93,144s3.2,5.33-.91,20.86l.15,22.84s-1.06,15.22-10.65,23.45-1.68,56.18-1.68,56.18S196.69,373,201.17,388.27c0,0,7.61,9,7.61,17.91s-8.06,27.76-6.27,36.27c0,0,7.62,41.65-9.85,54.63s-26.86,10.75-29.55,10.3-39.4,10.22-52.11-4.45c-7.85-9.05-32.72-38-38.54-80.07S86.09,356,86.54,291.1c0,0,4-31.79,1.34-41.2S79.82,237.81,82.51,228s-2.69-20.15-2.69-20.15l-34-50.6L.17,98s-2.12-12.49,8.5-11.16c0,0,10.9.26,22.85,20.45,0,0,18.41,16.48,30.1,16.48l-8-71.68s2.6-11.86,14.27-3.77C77.65,55.07,85.45,103,85.45,103L95.81,49.65s14.35-9.3,18.33,7.17V87.37s8.24-14.35,13.55-17.8,20.19-6.64,19.39,6.38l-2.65,8.76s4.78-.53,6.9-.53S157,88.47,157,88.47Z" fill="none"/></clipPath></defs><path d="M276.59,16.53S235.7-7.77,199,86.46l-4.74,36.15s-2.37-8.3-5.34-8.3-4.15,2.37,0,14.22v23.11s4.8,40.61,11.91,37.06l1.66,39.71L193.28,251l-18-4.1s5.86,12.23-11.28,19.18S149.6,530.45,149.6,530.45l350.4.7s.59-82.61-43.85-158.47l.59-8.29-8.89-21.34-.5-31.21s-.68-38.12-22.61-60.64S366.06,236.85,346,230l30.61-67s31.08-56.46-14.6-125c0,0-45.67-53.93-76.12-31.72Z" transform="translate(0)" fill="#e4be88"/><path d="M194.14,248.68s-.35,5.42-7.35,4.47l87.74,66.19,45.16,34.38s40,23.09,56.44,16.42,37.45-25.66,25.14-53.88c0,0-33.57-51.87-63.33-73.93l10.59-16.17s63.51.82,82,26.48c0,0,27.19,41,18.47,90.81l8.72,23.09s1,12.32-7.18,13.86L450,413.75l-9.23,28.73s9.75,19.5,9.75,23.6,4.61,65.07,4.61,65.07H148.38L155,268.28l20.27-21.39Z" transform="translate(0)" fill="#f4ede9"/><path d="M157,88.47s1.22,3.81-5.63,15.22c0,0,2.6,14.16,5.72,19.65S169.93,144,169.93,144s3.2,5.33-.91,20.86l.15,22.84s-1.06,15.22-10.65,23.45-1.68,56.18-1.68,56.18S196.69,373,201.17,388.27c0,0,6.8,15.3,6.8,24.26s-1.79,29.68,0,38.19c0,0,2.16,33.38-15.31,46.36s-24.18,11.2-26.86,10.75-48.71,12.73-60.63-12.62C95,473.56,77.48,459.82,71.66,417.72S86.09,356,86.54,291.1c0,0,4-31.79,1.34-41.2S79.82,237.81,82.51,228s-2.69-20.15-2.69-20.15l-34-50.6L.17,98s-2.12-12.49,8.5-11.16c0,0,10.9.26,22.85,20.45,0,0,18.41,16.48,30.1,16.48l-8-71.68s2.6-11.86,14.27-3.77C77.65,55.07,85.45,103,85.45,103L95.81,49.65s14.35-9.3,18.33,7.17V87.37s8.24-14.35,13.55-17.8,20.19-6.64,19.39,6.38l-2.65,8.76s4.78-.53,6.9-.53S157,88.47,157,88.47Z" transform="translate(0)" fill="#e4be88"/><path d="M263.93,282.67s4.35,2.73,12.17,2.53a50,50,0,0,0,12.17-1.53s-1.7,4.54-2,6-2.31,2-2.31,2-6.27,1.3-6.63,2-4.1-1.4-4.1-1.4-2.41.8-3.81.3-1.61-3-2.11-3.4S263.33,285.48,263.93,282.67Z" transform="translate(0)" fill="#382c2a"/><path d="M231.91,163.92s31.75,5.25,45.42,22.51a21.54,21.54,0,0,1,1.57,8.62c-.28,4.32-53.55-24.38-53.55-24.38A10.72,10.72,0,0,1,231.91,163.92Z" transform="translate(0)" fill="#382c2a"/><path d="M305.39,198.85s-1.82-5.11,15.44-9a75.94,75.94,0,0,1,32.45,0S352,197,348,197.52,305.39,198.85,305.39,198.85Z" transform="translate(0)" fill="#382c2a"/><path d="M208.78,148.58l13.55,32.78s1.28,6.6,1.65,7a17.21,17.21,0,0,1,1.28,2.57l-.92,10.8a23.67,23.67,0,0,0,7.33,14.47c7,6.78,31.69,10.63,38.65,2.93,0,0,10.07-6.77,10.26-18a10.72,10.72,0,0,0,3.29.74c1.47,0,1.65-1.29,6.23-.92s7.92,2.14,9.64,4.21l-2.94,8s-2.11,6.46,6.62,12.78,29.34,13,45.29-2.24c0,0,5.72-3.77,6.77-14.6l5.75-1.34,11.13-34-2.49-.26-11.46,29.64h-5.78s1.05-9.08-21.67-8.93-29,6.93-29,6.93-6.17-5.12-17.61-4.37l-3.61-.15s-6.33-13.69-28.22-14.14-22.79,4.66-22.79,4.66l-2.17-.15-2.19-6.17-14.6-36.41Z" transform="translate(0)" fill="#f4ede9"/><path d="M229.49,191.35s4.44-7.75,19.67-5.91,27.11,4.77,28.17,14.77-5.08,22.31-24.09,20.77-30.08-12-24.08-28.92Z" transform="translate(0)" fill="#4b3a37"/><path d="M300.38,209.51s4.18-11.81,16.71-12,32-.28,34.29,11.24-9.94,23.63-27.23,22.62S297.07,218.59,300.38,209.51Z" transform="translate(0)" fill="#4b3a37"/><path d="M259.62,78.71S240.75,95.1,222.68,97.1c0,0,2.35,16.4,1.68,19.74S205,164,201.61,161s-8-45.61-9-45.94S207,4.78,272.53,11.47c0,0,16.39-19.07,46.49-8s91.33,51.79,67.91,141l-15.72,32h-4.58l-30.88-48.51S275.14,108.14,259.62,78.71Z" transform="translate(0)" fill="#382c2a"/><path d="M198.74,151.65l2,74.3s0,6.66,3.82,10.91,8.08,15.3,8.08,15.3,17,29.47,25.07,39.39,20.83,18.41,33.16,19.68,23.08,1.67,29.88-10.65,59.78-92.64,59.78-92.64l-2.8.65-60.15,89.8s-2.25,4.51-6.76,4.7-9-2.26-17.45-1.69-12.58,2.81-12.58,2.81L242,291.26l-35.1-55.93A15.28,15.28,0,0,1,203,226c-.57-6.2-.75-71.9-.75-71.9Z" transform="translate(0)" fill="#382c2a"/><path d="M247.25,270.86s23.45-6.12,27.84-4.89l4.39,1.22,6.55-1.38s20.28,6.92,23.07,6.92-13,11.53-30.77,9.94S251.82,277.54,247.25,270.86Z" transform="translate(0)" fill="#d89d75"/><path d="M307.74,272.92c-.21-.08-.29-.08-.22,0l-.13,1c.31-.08.74-.48,0-.88s-3,.21-3.78.24c-3.85.19-7.7.29-11.55.2s-7.53.69-11.47.9A45.32,45.32,0,0,1,267,273a36.46,36.46,0,0,0-7-1.2c-4.43-.25-8.86-.87-13.26-1.43-.69-.09-.68,1,0,1.08,4.4.56,8.83,1.17,13.26,1.42a49.44,49.44,0,0,1,8.34,1.57,43.42,43.42,0,0,0,12.29,1.06c4.08-.22,7.55-1,11.47-.9s7.7,0,11.55-.2c1.08-.05,3.73.32,4.67-.51a.53.53,0,0,0,0-.76,1.45,1.45,0,0,0-1.2-.21.55.55,0,0,0-.13,1,2,2,0,0,0,.76.14c.69.07.68-1,0-1.08Z" transform="translate(0)" fill="#c18e65"/><path d="M276.33,259.29s-1.35-6.24-14.83-5-24.78,2.16-26.46,1.2-5.53,9.62,3.61,15.4a24.75,24.75,0,0,1,17.28-4.57c10.15,1.2,9.66,5,17.12,2.16a19.67,19.67,0,0,1,14,0s4.81,0,18.28-.24S319.51,270,319.51,270l4.36-6.38s-19.3-8.67-32.05-6.51C291.82,257.14,289.62,263.1,276.33,259.29Z" transform="translate(0)" fill="#382c2a"/><path d="M263.55,232.3c-3.78,3.58-6.53,10.46-2.31,14.64a19.12,19.12,0,0,0,7.09,4,4.76,4.76,0,0,0,1.17.4c.47,0,.5.38.08-.2a18.5,18.5,0,0,1,.95,1.95,15.15,15.15,0,0,0,6.24,6.37c3,1.47,7.15,1.47,10.35.71a12.75,12.75,0,0,0,4.42-2,19.72,19.72,0,0,0,1.88-1.54c.52-.48,1.42-1.79,1.91-2,.78-.28,2.26,0,3.1-.09a10.81,10.81,0,0,0,4.36-1.37c5.58-3.34,2.58-11.66.53-16.32-.28-.64-1.21-.09-.93.54,1.71,3.89,4.57,11.32.42,14.47a9.42,9.42,0,0,1-4.6,1.63c-.91.11-1.93-.09-2.81.06s-1,.57-1.58,1.17a17.8,17.8,0,0,1-4.37,3.45,15.9,15.9,0,0,1-10.25,1c-3.17-.69-5.6-3.18-7.26-5.84-.54-.86-.91-2.34-1.73-2.92a6.36,6.36,0,0,0-1.32-.42,25.43,25.43,0,0,1-3.32-1.41c-3-1.55-5.73-3.75-5.36-7.44a13.52,13.52,0,0,1,4.1-8.13c.5-.48-.26-1.24-.76-.76Z" transform="translate(0)" fill="#c18e65"/><path d="M88.21,215c7.08-.43,14.17-1,21.21-1.91,4.14-.52,8.08-1.46,12.15-2.31,7.28-1.53,14.81,1.3,22,2.32.68.09,1-.94.29-1-6.54-.93-13.2-3.27-19.87-2.71-4.65.4-9.26,2-13.92,2.58-7.24.95-14.55,1.55-21.84,2-.69,0-.7,1.12,0,1.08Z" transform="translate(0)" fill="#c18e65"/><path d="M143.7,222.4c-2.35-.3-4.7-.58-7-.87-3.89-.47-8.14-.51-11.88-1.71a38.66,38.66,0,0,0-4.66-1.57,25.27,25.27,0,0,0-4.6-.18H102.38a.54.54,0,0,0,0,1.08h12.9a20.8,20.8,0,0,1,5.23.3c1.73.43,3.32,1.27,5,1.72,3.48.89,7.27,1,10.84,1.41l7.31.9c.68.08.68-1,0-1.08Z" transform="translate(0)" fill="#c18e65"/><g clip-path="url(#f8516f6f-6af1-4204-b25d-e7aac2c254a5)"><path d="M54.76,125.1a142.68,142.68,0,0,0,20-1.68c1.07-.19,2.79-.35,3.57-1.24.45-.52-.31-1.28-.76-.76s-2.11.78-2.92.93c-1.88.35-3.79.56-5.7.75-3.86.38-7.73.62-11.6.8l-2.62.12c-.69,0-.7,1.1,0,1.08Z" transform="translate(0)" fill="#c18e65"/><path d="M84.63,95.78c.43,4.72.43,9.52.59,14.25.1,3,.2,6.07.2,9.11,0,1.43.39,1.68,1.61,2.38,3.35,1.91,7.32,2.8,11.06,3.56.68.13,1-.91.29-1a39.91,39.91,0,0,1-10.15-3.11,8.59,8.59,0,0,1-1.65-1,1.37,1.37,0,0,1-.22-.19c.23.37.14-.56.14-.84,0-6-.3-11.93-.55-17.89-.07-1.74-.08-3.5-.24-5.24-.06-.68-1.14-.69-1.08,0Z" transform="translate(0)" fill="#c18e65"/><path d="M114.08,83.86a69.25,69.25,0,0,1,.26,11.43c-.36,7.4-1.69,15.11-5.61,21.52a.54.54,0,0,0,.61.79c6.87-1,16.27-.77,21.35,4.58.48.51,1.24-.26.76-.76-5.37-5.66-15.15-6-22.4-4.86l.61.79c3.86-6.31,5.26-13.85,5.71-21.14a69.8,69.8,0,0,0-.21-12.35c-.08-.68-1.16-.69-1.08,0Z" transform="translate(0)" fill="#c18e65"/><path d="M146.74,83.32c-12,1.38-16,16.33-16.18,26.17,0,.93.59,31.26,6,28.27l-.55-.94A33.87,33.87,0,0,0,122.5,163.2a.54.54,0,0,0,1.07,0,32.75,32.75,0,0,1,13-25.44.55.55,0,0,0-.55-.94c-.82.46-2.08-3.3-2.26-3.94-2.28-8-2.59-17.56-2-25.81.6-8.65,4.78-21.49,15-22.67.68-.08.69-1.16,0-1.08Z" transform="translate(0)" fill="#c18e65"/><path d="M141.46,85.18a14.69,14.69,0,0,1-5.22.72,12.5,12.5,0,0,1-9.79-4.9c-.41-.55-1.35,0-.93.54A13.56,13.56,0,0,0,135.77,87a15.71,15.71,0,0,0,6-.74c.65-.23.37-1.27-.28-1Z" transform="translate(0)" fill="#c18e65"/><path d="M132.07,98.61a.29.29,0,0,0,0,.09.32.32,0,0,0,0,.09c0,.12.06-.11,0,0l-.09.14c-.08.16,0,0-.06.09l-.15.16-.08.07,0,0a2.77,2.77,0,0,1-1.35.48,8.29,8.29,0,0,1-2.48-.11,26,26,0,0,1-4.8-1.43c-.65-.26-.93.79-.29,1,2.33.9,5,1.87,7.58,1.58a3.38,3.38,0,0,0,2.64-1.42,1.71,1.71,0,0,0,.22-.54c.09-.68-1-1-1-.29Z" transform="translate(0)" fill="#c18e65"/><path d="M77.71,141.71c9.93,5,18,15.15,21.19,25.72a43.33,43.33,0,0,1,1.26,17.73c-.08.69,1,.68,1.08,0a42.77,42.77,0,0,0-5.85-28.08A48.59,48.59,0,0,0,81.7,142.89a31.2,31.2,0,0,0-3.45-2.11c-.62-.32-1.16.61-.54.93Z" transform="translate(0)" fill="#c18e65"/><path d="M30.31,106a1.86,1.86,0,0,1-.12.38h0l0,.08-.14.25a1.58,1.58,0,0,1-.15.24.57.57,0,0,1-.08.13l-.06.08a6.4,6.4,0,0,1-3.44,2,14.91,14.91,0,0,1-4.05.41.54.54,0,0,0,0,1.08c3.09.05,7.4-.55,8.88-3.75a2.61,2.61,0,0,0,.24-.66c.13-.68-.91-1-1-.28Z" transform="translate(0)" fill="#c18e65"/><path d="M81.72,86.31s.09-.15,0,0l-.17.28a.72.72,0,0,1-.09.1l-.21.23a4.42,4.42,0,0,1-.55.44,13.7,13.7,0,0,1-5.81,1.93,42.33,42.33,0,0,1-6.75.39.54.54,0,0,0,0,1.08A32.14,32.14,0,0,0,78.7,89.49a7.81,7.81,0,0,0,3.63-2.19,2.21,2.21,0,0,0,.43-.7c.22-.66-.82-.94-1-.29Z" transform="translate(0)" fill="#c18e65"/><path d="M113.71,91.19c.18-.23,0,0,0,0s.06,0-.09.07a2.61,2.61,0,0,1-.28.17,5.83,5.83,0,0,1-2,.59c-3.85.49-7.94-.81-11.53-2-.65-.22-.94.82-.28,1a31.81,31.81,0,0,0,10.45,2.17,7.66,7.66,0,0,0,4.1-.94,2.3,2.3,0,0,0,.62-.54c.42-.55-.52-1.09-.94-.55Z" transform="translate(0)" fill="#c18e65"/></g><ellipse cx="139.52" cy="86.38" rx="2.05" ry="1.13" transform="translate(-20.67 50.79) rotate(-19.24)" fill="#fff"/><ellipse cx="142.14" cy="160.56" rx="2.05" ry="1.13" transform="translate(-23.7 296.5) rotate(-87.82)" fill="#fff"/><ellipse cx="134.2" cy="188.7" rx="1.13" ry="2.05" transform="translate(-80.38 101.68) rotate(-32.5)" fill="#fff"/><ellipse cx="153.67" cy="184.9" rx="2.05" ry="1.13" transform="translate(-55.27 65.95) rotate(-20.62)" fill="#fff"/><ellipse cx="142.14" cy="89.16" rx="1.13" ry="2.05" transform="translate(-24.57 108.14) rotate(-38.59)" fill="#fff"/><ellipse cx="138.72" cy="88.62" rx="2.05" ry="1.13" transform="translate(-25.66 97.27) rotate(-35.58)" fill="#fff"/><ellipse cx="123.71" cy="131.54" rx="2.05" ry="1.13" transform="translate(-12.48 250.12) rotate(-87.8)" fill="#fff"/><ellipse cx="130.82" cy="262.48" rx="2.05" ry="1.13" transform="translate(-154.86 328.78) rotate(-76.57)" fill="#fff"/><ellipse cx="147.39" cy="265.81" rx="1.13" ry="2.05" transform="translate(-86.34 71.52) rotate(-21.26)" fill="#fff"/><ellipse cx="138.72" cy="233.48" rx="2.05" ry="1.13" transform="translate(-36.16 25.7) rotate(-9.37)" fill="#fff"/><ellipse cx="117.15" cy="259.03" rx="2.05" ry="1.13" transform="translate(-162.02 312.74) rotate(-76.55)" fill="#fff"/><ellipse cx="142.14" cy="311.84" rx="1.13" ry="2.05" transform="translate(-49.67 27.84) rotate(-9.53)" fill="#fff"/><ellipse cx="179.22" cy="305.62" rx="1.13" ry="2.05" transform="translate(-162.35 211.55) rotate(-44.21)" fill="#fff"/><ellipse cx="167.89" cy="371.88" rx="2.05" ry="1.13" transform="translate(-172.84 147.41) rotate(-32.33)" fill="#fff"/><ellipse cx="128.66" cy="316.88" rx="1.13" ry="2.05" transform="translate(-50.59 25.61) rotate(-9.51)" fill="#fff"/><ellipse cx="148.38" cy="351.18" rx="1.13" ry="2.05" transform="translate(-141.05 103.04) rotate(-26.49)" fill="#fff"/><ellipse cx="137.03" cy="294.99" rx="1.13" ry="2.05" transform="translate(-72.72 46.39) rotate(-15.24)" fill="#fff"/><ellipse cx="130.82" cy="388.14" rx="2.05" ry="1.13" transform="translate(-22.47 8.31) rotate(-3.35)" fill="#fff"/><ellipse cx="123.71" cy="290.29" rx="2.05" ry="1.13" transform="translate(-191.21 310.2) rotate(-70.54)" fill="#fff"/><ellipse cx="135.24" cy="246.17" rx="1.13" ry="2.05" transform="translate(-14.83 8.75) rotate(-3.51)" fill="#fff"/><ellipse cx="109.78" cy="311.84" rx="1.13" ry="2.05" transform="translate(-18.79 7.27) rotate(-3.49)" fill="#fff"/><ellipse cx="130.82" cy="439.51" rx="2.05" ry="1.13" transform="translate(-327.05 464.71) rotate(-76.57)" fill="#fff"/><ellipse cx="95.76" cy="422.86" rx="1.13" ry="2.05" transform="translate(-267.76 186.56) rotate(-44.21)" fill="#fff"/><ellipse cx="79.36" cy="492.47" rx="1.13" ry="2.05" transform="translate(-211.3 87.09) rotate(-26.49)" fill="#fff"/><ellipse cx="192.53" cy="333.85" rx="1.13" ry="2.05" transform="translate(-80.98 62.35) rotate(-15.24)" fill="#fff"/><ellipse cx="102.38" cy="381.82" rx="2.05" ry="1.13" transform="translate(-22.15 6.64) rotate(-3.35)" fill="#fff"/><ellipse cx="179.22" cy="400.16" rx="2.05" ry="1.13" transform="translate(-257.79 435.81) rotate(-70.54)" fill="#fff"/><ellipse cx="105.17" cy="342.76" rx="1.13" ry="2.05" transform="translate(-20.8 7.09) rotate(-3.51)" fill="#fff"/><ellipse cx="61.46" cy="397.24" rx="1.13" ry="2.05" transform="translate(-24.08 4.48) rotate(-3.49)" fill="#fff"/><ellipse cx="167.89" cy="448.36" rx="2.05" ry="1.13" transform="translate(-307.2 507.56) rotate(-76.57)" fill="#fff"/><ellipse cx="176.97" cy="485" rx="1.13" ry="2.05" transform="translate(-288.08 260.79) rotate(-44.21)" fill="#fff"/><ellipse cx="137.95" cy="495.16" rx="1.13" ry="2.05" transform="translate(-206.36 113.49) rotate(-26.49)" fill="#fff"/><ellipse cx="148.38" cy="389.27" rx="1.13" ry="2.05" transform="translate(-97.1 52.69) rotate(-15.24)" fill="#fff"/><ellipse cx="145.77" cy="417.72" rx="2.05" ry="1.13" transform="translate(-24.17 9.24) rotate(-3.35)" fill="#fff"/><ellipse cx="148.78" cy="469.16" rx="2.05" ry="1.13" transform="translate(-343.14 453.11) rotate(-70.54)" fill="#fff"/><ellipse cx="160.43" cy="331.8" rx="1.13" ry="2.05" transform="translate(-20.02 10.45) rotate(-3.51)" fill="#fff"/><ellipse cx="111" cy="462.74" rx="1.13" ry="2.05" transform="translate(-27.98 7.62) rotate(-3.49)" fill="#fff"/><ellipse cx="142.14" cy="112.58" rx="1.13" ry="2.05" transform="translate(-38.97 103.73) rotate(-35.58)" fill="#fff"/></svg>