<svg id="ef73edf5-c3b3-4a09-a95a-daa1e60de6d5" data-name="Layer 1" xmlns="http://www.w3.org/2000/svg" xmlns:xlink="http://www.w3.org/1999/xlink" viewBox="0 0 500 761.71"><defs><clipPath id="b661cff6-624e-435c-b151-3a683b4291ec"><path d="M102.09,616.26s11.23-16.84,33,2.37l17.8-7s17.24-5.45,45.79-1S242,617.72,242,617.72l5.43,3.9s5.05,5.23,3.5,22c-1.6,17.33-8.42,46.47-55.33,56.81-36.67,8.08-50.12-4-50.12-4S124,682.8,121.62,656.81s-4.15-21.57-4.15-21.57S103.58,629.24,102.09,616.26Z" fill="none"/></clipPath></defs><path d="M151.69,97.82s82.8-146.18,223.05-81.14c166.6,77.26,118,371.45,120.64,460.37S419.3,753.43,419.3,753.43,416.19,579.16,398,518.17,319.65,87.58,151.69,97.82Z" fill="#513b2c"/><path d="M6.67,311.21S-27.67,113.82,162.47,92.43C329.86,73.6,363.31,85.06,402.3,148.34c40.56,65.83,50.52,128,29,206.15s-74.11,97-83.54,91.62-80.84-116.54-80.84-116.54l-24.26-60.4S9.45,341.1,6.67,311.21Z" fill="#684b36"/><path d="M8.22,301.42s-11.6,33.72.18,76L4.25,402.25S4.59,413.6,9,417.52s7,15.34,7,17.79-3.42,6.37,6.37,13.71c0,0-10.77,28.9-6.85,47s2.93,36.74,38.2,82.29a684.25,684.25,0,0,1,57.79,88.16L130.68,690s17.52,56.82,73.84,70,111.19-56.32,111.19-56.32,40.58-41.33,56.7-85.16c0,0,34.16-42.55,36.1-63.82L404,502.53s15.47,6.45,25.14-18,21.92-61.88,21.92-61.88,3.86-33.51,0-52.85-28.36-23.21-28.36-23.21-23.21-3.86-32.17,63.22c0,0-4.58,27.67-35.51,24.45,0,0-10.32-16.76-7.1-30.3S340.18,373,340.18,373s-7.09,4.51-8.38.65,2.58-12.9,2.58-12.9S326,364,326,362s0-10.31,3.87-12.24-2.58-1.29-9-1.29-14.71-.84-13.29-6.52c0,0-31.64-23.7-33.58-43S279.59,266,279.59,266s-1.93-34.81-38.68-21.91S123,276.93,108.78,275s-35.46,3.22-51.57-8.38c0,0-40-17.41-45.12,12.89Z" fill="#eda98e"/><path d="M66.6,429.21a10.39,10.39,0,0,1,8.41,1.2c8.85,5.54,22.44,20.27,23.86,48.88.91,18.53-.5,37.13-1,55.69,0,1.25,2.44,1.11,2.47-.13.37-14.52.61-29,.82-43.56a153.58,153.58,0,0,0-2.55-31.93c-3-15.28-20.11-30.43-25.29-31.94a13.29,13.29,0,0,0-7.5,0c-1.47.49-.73,2.32.76,1.83Z" fill="#ce8065"/><path d="M130.51,420.9s32.87-21.14,45.79-26.42,36.39-9.39,36.39-9.39a84.53,84.53,0,0,1,34,4.7c18.2,6.45,44,15.84,44,15.84s-12.92,5.87-25.24,1.76-45.79-6.45-45.79-6.45-64.48,22.3-68,25.83-14.14,8.8-14.14,8.8Z" fill="#513b2c"/><path d="M4.25,404.46s3.58-12.33,11.8-10,66.33,27.59,66.33,27.59l4.11,18.78s-65.74-35.8-70.44-33.46c0,0-10.09,2.64-9.86,5.67Z" fill="#513b2c"/><path d="M145.47,584.06s.89-6.19,8.28-7.2,11,3,11,3,1.56,1.59-4.15,1.3-9.26-2-10.28-1.58S145.47,584.06,145.47,584.06Z" fill="#ce8065"/><path d="M107.28,583.16a3.61,3.61,0,0,1,3.61,1.62,19.52,19.52,0,0,1,.83,2.25,11.48,11.48,0,0,0,4.43,5.83c3.51,2.23,8.09,2.23,12.06,1.73a26.79,26.79,0,0,0,11.1-3.89,17.39,17.39,0,0,0,4.4-3.84c.75-1-.92-2-1.67-1,.26-.34,0,0-.1.11s-.42.46-.64.67a17.24,17.24,0,0,1-2.56,2.1,24.71,24.71,0,0,1-11.09,4c-3.78.43-8.4.43-11.45-2.22C114.5,589,113.78,587,113,585a5.44,5.44,0,0,0-5.76-3.77c-1.23.1-1.24,2,0,1.94Z" fill="#ce8065"/><path d="M168.93,540.65c4.53,4.6,9.25,9.55,12.51,15.15a6.79,6.79,0,0,1,1.33,3.67,34.79,34.79,0,0,1-1.19,5.31c-1.45,5.79-4.17,11.06-9,14.76-1,.75,0,2.43,1,1.67,6.6-5.06,10.19-13.35,11.11-21.53.27-2.44-1.56-5-2.86-6.87a85,85,0,0,0-6.75-8.4c-1.55-1.74-3.13-3.46-4.78-5.13-.87-.88-2.24.48-1.36,1.37Z" fill="#ce8065"/><path d="M172.58,544.47c14.16,8,28.7,17.67,44.4,22.2,9.79,2.83,20.2,4.66,29.36,9.15,4.85,2.37,10.25,3.41,15.1,5.81,3.59,1.76,5.65,5.11,9.24,6.66,4,1.7,8.44,2,12.5,3.5,7.56,2.74,11.39,8.26,11.5,16.32a1,1,0,0,0,1.93,0c-.14-10.24-5.8-16.17-15.35-19-3.51-1-8.47-1.24-11.48-3.48-1.64-1.21-2.7-3-4.47-4.13a39.61,39.61,0,0,0-7.68-3.62c-9.56-3.63-18.74-7.25-28.64-10-10.4-2.84-19.64-5.85-29.2-10.84-8.83-4.62-17.56-9.43-26.23-14.33-1.08-.61-2.06,1.06-1,1.67Z" fill="#ce8065"/><path d="M22.2,445.12c8.49-9.17,22-13.17,33.92-9.22C67,439.53,77.22,448,83.46,457.67c.84,1.3,2.93.09,2.09-1.22C78.8,446,67.78,437,55.87,433.29c-12.4-3.81-26.6.64-35.38,10.12-1,1.14.65,2.85,1.71,1.71Z" fill="#ce8065"/><path d="M98.64,547.92a126.35,126.35,0,0,0-1.12,13.32c-.26,7.52-.22,15.67,2.33,22.85,1.11,3.11,2.83,6.17,5.79,7.85a1,1,0,0,0,1-1.67c-5.53-3.14-6.46-11.6-6.94-17.26a114,114,0,0,1,.33-20.15c.14-1.4.35-3.36.5-4.43s-1.69-1.74-1.86-.51Z" fill="#ce8065"/><path d="M98.1,555.28c-4.24,5.32-8.72,10.86-11.83,16.93-1.14,2.24-1.28,4.62-2.23,6.94-1.61,3.92-3.11,7.88-3.27,12.17-.27,7,3.3,12.92,8.38,17.48.92.83,2.29-.54,1.37-1.37-6-5.42-9.12-12.37-7.2-20.42.89-3.74,3.13-7.18,3.69-11s3.73-7.61,6-10.75q3.12-4.41,6.49-8.65c.77-1-.59-2.34-1.36-1.37Z" fill="#ce8065"/><path d="M411.6,450.6c5.38-4.54,10.16-9.63,12.5-16.38.86-2.5,1.46-5.08,2.3-7.59,1.22-3.61,2.76-7.12,3.29-10.93.64-4.59-1-7.9-5.28-9.74-2.32-1-4.8-1.64-7.18-2.5a47.16,47.16,0,0,0-7.86-2.39c-2.07-.35-4.52-.44-6.15,1.1-2.2,2.07-1.75,5.65-1.31,8.31.2,1.22,2.07.7,1.86-.52-.33-2-.91-5.54,1.31-6.76,1.61-.89,3.89-.3,5.55.12a99.88,99.88,0,0,1,12.81,4.31c1.6.67,3.26,1.58,4,3.23.92,2,.44,4.55-.05,6.61-.75,3.19-2.06,6.18-3.06,9.29-.66,2-1.18,4.13-1.84,6.17-2.19,6.79-6.89,11.78-12.26,16.31-1,.8.42,2.16,1.37,1.36Z" fill="#ce8065"/><path d="M411.75,385.36c1.71-2.83,3.34-5.69,4.92-8.6,1.14-2.11,2.26-4.24,3.27-6.43.67-1.45,1.1-3.85,2-5.1.34-.48.11-.45,1.37-.93a12.24,12.24,0,0,1,4.61-.6c6.84.22,10.06,5.93,11.56,11.95,5.71,22.87,6.59,44.37-3.24,66.12q-6.67,14.76-13.42,29.49c-.51,1.12,1.15,2.11,1.67,1,8.93-19.54,21.37-40,21.55-62.1a122.05,122.05,0,0,0-1.27-15.38C443.83,387,443,378.37,440.1,371c-2.69-6.8-10.86-12-18.17-8.3-2.89,1.46-3.22,5.82-4.67,8.75-2.19,4.41-4.63,8.71-7.18,12.92a1,1,0,0,0,1.67,1Z" fill="#ce8065"/><path d="M392.43,422.88c2.29,6.53,4.68,14.11,9.73,19,.37.36.47-.11,0,.71a22.74,22.74,0,0,1-1.8,2.64,84.44,84.44,0,0,0-5.23,7.4c-2.72,4.6-5.28,11-3.37,16.39,2.29,6.41,8.94,3.46,12.75.36,1.21-1-.51-2.68-1.71-1.71-1.73,1.42-5.1,4.05-7.46,2.44-1.82-1.24-1.85-4.19-1.7-6.12.47-6.11,4.13-11.39,7.72-16.12,1.27-1.66,5.19-5.58,2.68-7.7a10.29,10.29,0,0,1-2.6-2.66,44.78,44.78,0,0,1-2.93-5.73c-1.39-3.11-2.65-6.3-3.77-9.52-.51-1.45-2.85-.83-2.33.65Z" fill="#ce8065"/><path d="M161.57,451.14c9.13-12,27.64-18.22,42.8-18.71,18.88-.6,39.53,4,56.25,13,1.37.74,2.59-1.34,1.22-2.08-17.94-9.68-40.5-14.72-60.76-13.18-15,1.14-32.15,7.34-41.6,19.73-.94,1.23,1.16,2.44,2.09,1.22Z" fill="#ce8065"/><path d="M340.66,470.11a268.27,268.27,0,0,1-.88,39c-2,22.37-6,47.74-20.18,65.92-1,1.22.75,2.94,1.71,1.71,13.95-17.85,18.3-42,20.54-64a267,267,0,0,0,1.22-42.6c-.09-1.55-2.51-1.56-2.41,0Z" fill="#ce8065"/><path d="M102.09,616.26s11.23-16.84,33,2.37l17.8-7s17.24-5.45,45.79-1S242,617.72,242,617.72l5.43,3.9s5.05,5.23,3.5,22c-1.6,17.33-8.42,46.47-55.33,56.81-36.67,8.08-50.12-4-50.12-4S124,682.8,121.62,656.81s-4.15-21.57-4.15-21.57S103.58,629.24,102.09,616.26Z" fill="#e95a7e"/><g clip-path="url(#b661cff6-624e-435c-b151-3a683b4291ec)"><polygon points="114.25 634.42 140.36 640.81 203.07 650.82 245.88 616.86 256.05 638.3 240.24 688.08 190.52 707.54 143.9 703.17 111.46 666.49 114.25 634.42" fill="#d34870"/></g><path d="M238.7,609.91a86.67,86.67,0,0,1,12.36,18.28c7.59,14.39,11.61,30.47,10.35,46.77-.12,1.55,2.3,1.54,2.42,0,1.81-23.55-7.34-49.31-23.42-66.76-1.06-1.14-2.76.57-1.71,1.71Z" fill="#ce8065"/><path d="M289.55,653.49v34.59a1.21,1.21,0,0,0,2.41,0V653.49a1.21,1.21,0,0,0-2.41,0Z" fill="#ce8065"/><path d="M140.36,640.81s-.94,41.45,37.56,43.86c26.91,1.68,49.71-13.88,49.71-13.88l17.16-29.7s6.48-23-5.7-24.23c0,0,10.73,15.94-28.38,23.25S140.36,640.81,140.36,640.81Z" fill="#fff5ec"/><path d="M148.37,642s43.53-1,66.79-12.37S230.6,614,242,617.72s-12.52,35.77-12.52,35.77S219.25,675,184.71,675,141.22,652.59,148.37,642Z" fill="#af3863"/><path d="M81.82,460.25c-10-8.66-15.75-10.36-26-13.27h0l-.25-.05a116.72,116.72,0,0,0-13.8-3c-10.93-2.53-24.82-6.08-28.54-8.61,0,0,.12,4.47,3.84,5.84,0,0-8.39-1-12.84-5.36s4.31,13,14.52,17.63c0,0-13-6-18.77-13.64,0,0,3.52,12,13.78,14.37,0,0,2.69,6.58,13,10h0c5,2.51,12.7,4.23,21.79,5.3,18.18,2.14,21.21-2.12,25.43-4,0,0,1,4.16,10.19,1.09C90.37,464.41,81.82,460.25,81.82,460.25Z" fill="#513b2c"/><path d="M240.82,442.2c3.4-5.4,3.25-19.55,1.36-13.09-1.22,4.14-4.17,8-8.92,10.85l-1.79-.39c2.94-5.9,1.13-17,1.13-17-.11,4.75-7.77,11.94-14.74,15.77-.91-.09-4.49.44-5.38.37,2.48-5.36,0-14.37,0-14.37-1.07,7.82-11.2,11.66-14.06,12.73l-.57.05c.46-1.76,6.38-17.69,1-9.42-2.51,3.9-8.95,9-14.18,13.17-4.5,2.06-6.15,6.58-12.6,14.12-3.46,4.06-1.56,10.41-1.56,10.41s4.29,7.14,10.73-1.88c0,0,30.83,4.37,44-.6s29.69-14.07,29.69-14.07A64.49,64.49,0,0,0,240.82,442.2Z" fill="#513b2c"/><path d="M257.6,458.54s-59.56,92.4-1.7,91S257.6,458.54,257.6,458.54Z" fill="#b2eae8"/><path d="M272.15,508.15S282.42,519.9,274.3,534s-13.33-2.71-12.47-5,3.87-8.33,3.44-12.63S263.29,502.29,272.15,508.15Z" fill="#d7ffff"/></svg>